<?xml version="1.0" standalone="no"?>
<!DOCTYPE svg PUBLIC "-//W3C//DTD SVG 20010904//EN"
 "http://www.w3.org/TR/2001/REC-SVG-20010904/DTD/svg10.dtd">
<svg version="1.0" xmlns="http://www.w3.org/2000/svg"
 width="652.000000pt" height="652.000000pt" viewBox="0 0 652.000000 652.000000"
 preserveAspectRatio="xMidYMid meet">
<metadata>
Created by potrace 1.14, written by Peter Selinger 2001-2017
</metadata>
<g transform="translate(0.000000,652.000000) scale(0.100000,-0.100000)"
fill="#000000" stroke="none">
<path d="M5333 6358 c-6 -7 -11 -20 -11 -28 -1 -19 -9 -72 -19 -125 -4 -22 -8
-44 -8 -50 -1 -5 -4 -23 -8 -40 -4 -16 -9 -41 -12 -55 -5 -26 -12 -61 -20 -95
-2 -11 -18 -74 -35 -140 -17 -66 -33 -128 -35 -137 -2 -9 -8 -26 -14 -37 -6
-11 -10 -24 -9 -28 6 -21 -146 -444 -208 -581 -13 -29 -24 -55 -24 -58 0 -11
-135 -279 -142 -282 -4 -2 -8 -10 -8 -19 0 -29 -34 -7 -58 37 -57 105 -146
226 -235 319 -165 174 -334 288 -597 404 -89 39 -315 97 -440 113 -215 27
-542 21 -680 -12 -14 -3 -40 -8 -59 -10 -18 -3 -81 -18 -140 -35 -58 -16 -113
-32 -121 -34 -8 -2 -31 -10 -51 -19 -20 -8 -39 -12 -43 -9 -3 4 -6 2 -6 -4 0
-5 -18 -15 -40 -22 -58 -17 -342 -167 -385 -203 -5 -5 -35 -26 -65 -48 -60
-43 -100 -74 -138 -105 -46 -38 -247 -240 -282 -283 -19 -24 -42 -52 -50 -61
-28 -32 -60 -80 -60 -90 0 -5 -4 -11 -8 -13 -10 -4 -82 -125 -82 -138 0 -4 -4
-10 -9 -12 -14 -5 -211 -417 -211 -441 0 -7 -4 -17 -9 -23 -10 -11 -78 -196
-121 -329 -18 -55 -35 -107 -38 -115 -3 -8 -6 -17 -7 -20 0 -3 -8 -30 -18 -60
-15 -52 -66 -247 -72 -280 -2 -8 -8 -33 -14 -55 -5 -22 -13 -53 -15 -70 -3
-16 -8 -41 -11 -55 -3 -14 -8 -36 -11 -50 -2 -14 -6 -34 -9 -46 -3 -12 -7 -39
-11 -60 -3 -21 -9 -57 -14 -79 -5 -22 -12 -62 -16 -90 -3 -27 -8 -59 -10 -70
-2 -11 -7 -33 -9 -50 -49 -275 -141 -681 -188 -825 -8 -25 -23 -72 -32 -105
-9 -33 -21 -69 -25 -80 -15 -39 -35 -90 -36 -95 -1 -7 -11 -32 -52 -129 -42
-99 -112 -218 -270 -459 -25 -38 -32 -59 -28 -77 5 -20 34 -46 56 -50 3 -1 23
-9 45 -19 71 -32 349 -136 362 -136 7 0 21 -4 31 -10 17 -10 93 -37 122 -44 8
-2 44 -14 80 -25 36 -12 74 -23 85 -26 11 -2 52 -14 90 -25 39 -12 77 -23 85
-25 8 -2 60 -16 114 -30 55 -15 109 -29 120 -31 46 -9 63 -12 102 -23 22 -6
53 -12 70 -14 16 -2 47 -9 69 -15 22 -6 55 -13 73 -16 17 -3 47 -9 65 -12 31
-5 59 -10 102 -19 45 -9 203 -35 250 -41 17 -2 46 -6 65 -9 74 -12 129 -18
350 -40 30 -3 78 -8 105 -10 136 -14 273 -18 635 -18 415 0 468 2 755 28 90 8
162 17 203 26 24 5 47 7 52 4 5 -3 11 -1 15 4 3 5 13 10 23 10 94 -1 430 112
420 141 -2 6 -45 12 -98 15 -52 2 -106 7 -120 10 -14 3 -37 8 -52 10 -33 5
-169 45 -183 53 -5 4 -13 7 -17 8 -5 1 -10 3 -13 4 -3 1 -8 3 -12 4 -23 5
-163 81 -163 88 0 4 -5 8 -11 8 -15 0 -90 61 -148 120 -72 73 -160 222 -176
300 -2 8 -4 15 -5 15 -2 0 -13 51 -27 125 -14 77 -4 293 17 382 6 24 13 54 16
68 3 14 11 43 19 65 92 273 300 484 585 595 47 17 91 33 100 35 8 2 50 10 93
19 66 14 115 20 212 28 6 1 50 -2 99 -6 78 -6 113 -12 199 -32 9 -2 25 -6 35
-8 31 -7 147 -53 193 -76 109 -56 236 -161 301 -250 63 -88 126 -232 143 -331
3 -19 8 -47 11 -64 9 -44 9 -191 1 -261 -8 -68 -40 -199 -62 -251 -8 -18 -12
-33 -10 -33 2 0 -16 -39 -39 -87 -34 -68 -40 -89 -29 -91 32 -8 300 150 375
220 17 15 32 28 34 28 2 0 12 8 22 18 10 9 29 26 43 38 160 138 370 439 449
644 11 30 27 69 35 87 8 17 15 37 15 45 0 8 3 18 8 22 4 4 7 11 7 14 1 4 6 23
13 43 7 20 14 45 17 55 2 10 15 69 29 129 23 98 30 138 41 225 28 217 27 525
-1 675 -3 17 -7 39 -9 50 -9 68 -46 192 -97 325 -31 82 -150 296 -179 320 -3
3 -10 12 -15 21 -23 40 -234 270 -234 255 0 -3 -16 10 -35 29 -19 19 -37 35
-40 35 -6 0 -22 12 -53 40 -24 21 -151 100 -162 100 -4 0 -10 3 -12 8 -3 7
-156 81 -213 103 -111 42 -243 72 -337 78 -37 2 -27 38 47 166 34 59 164 239
177 243 4 2 8 9 8 15 0 7 15 28 33 48 17 20 43 51 57 69 14 18 35 44 48 56 12
13 22 26 22 29 0 3 10 16 23 29 12 13 31 34 41 47 48 60 179 209 239 272 20
22 37 41 37 44 0 2 12 16 28 31 15 16 49 53 76 83 27 29 80 87 117 126 38 40
69 78 69 85 0 24 -274 269 -390 348 -19 13 -37 27 -40 30 -3 3 -30 21 -60 40
-30 19 -57 37 -60 40 -5 6 -110 68 -183 109 -44 24 -51 25 -64 9z"/>
</g>
</svg>
